<svg xmlns="http://www.w3.org/2000/svg" width="25" height="24" viewBox="0 0 25 24">
    <g fill="none" fill-rule="nonzero">
        <path fill="#D8F4E4" d="M10.5 24C16.299 24 21 19.299 21 13.5S16.299 3 10.5 3 0 7.701 0 13.5 4.701 24 10.5 24z"/>
        <path fill="#1DC064" d="M13 22c5.523 0 10-4.477 10-10S18.523 2 13 2 3 6.477 3 12s4.477 10 10 10zm0 2C6.373 24 1 18.627 1 12S6.373 0 13 0s12 5.373 12 12-5.373 12-12 12zm-2.25-9.393l-3.054-2.961a1 1 0 1 0-1.392 1.436l3.75 3.636a1 1 0 0 0 1.392 0l8.25-8a1 1 0 0 0-1.392-1.436l-7.554 7.325z"/>
    </g>
</svg>
