<svg xmlns="http://www.w3.org/2000/svg" width="26" height="23" viewBox="0 0 26 23">
    <g fill="none" fill-rule="nonzero">
        <path fill="#C4E0EE" d="M12.696 22.606c-.37 0-.722-.168-.958-.456L.386 8.264a1.267 1.267 0 0 1-.08-1.492L4.359.564A1.24 1.24 0 0 1 5.396 0h14.6c.418 0 .808.212 1.038.564l4.051 6.208c.301.461.269 1.066-.08 1.492L13.656 22.15a1.237 1.237 0 0 1-.959.456z"/>
        <g fill="#D9F0FB">
            <path d="M4.803.122a1.243 1.243 0 0 0-.473.426L.28 6.756c-.153.235-.22.508-.202.775h7.658l.952-1.458L4.803.123zM25.057 6.756L21.006.548a1.24 1.24 0 0 0-.473-.426L16.65 6.073l.952 1.458h7.658a1.261 1.261 0 0 0-.202-.775zM12.668 22.592l4.933-15.06H7.766z"/>
        </g>
        <path fill="#F2FAFF" d="M12.64 0L7.715 7.548h9.865L12.654 0z"/>
        <path fill="#FFF" d="M12.696 22.606c-.37 0-.722-.168-.958-.456L.386 8.264a1.267 1.267 0 0 1-.08-1.492L4.359.564A1.24 1.24 0 0 1 5.396 0H7.6L4.358 7.63c5.806 9.984 8.585 14.976 8.338 14.976z" opacity=".343"/>
        <path fill="#000" d="M12.602 22.606c.37 0 .722-.168.958-.456L24.912 8.264c.348-.426.38-1.03.08-1.492L20.94.564A1.24 1.24 0 0 0 19.903 0h-2.205l3.242 7.63c-5.806 9.984-8.585 14.976-8.338 14.976z" opacity=".127"/>
    </g>
</svg>
