<?xml version="1.0" encoding="UTF-8"?>
<svg width="247px" height="245px" viewBox="0 0 247 245" version="1.1" xmlns="http://www.w3.org/2000/svg" xmlns:xlink="http://www.w3.org/1999/xlink">
    <!-- Generator: Sketch 50.2 (55047) - http://www.bohemiancoding.com/sketch -->
    <title>:D</title>
    <desc>Created with Sketch.</desc>
    <defs></defs>
    <g id="Page-1" stroke="none" stroke-width="1" fill="none" fill-rule="evenodd">
        <g id="Icons-by-Sunako---Sketch-App-Source" transform="translate(-1271.000000, -1078.000000)">
            <g id=":D" transform="translate(1271.000000, 1078.000000)">
                <path d="M138.431476,177.613328 C139.118393,177.978027 139.76321,178.449501 140.341238,179.027529 L145.698485,184.384776 L148.724923,187.411214 C151.433186,187.489352 154.117859,188.561509 156.183433,190.627084 L191.539439,225.983089 C195.834478,230.278128 195.831445,237.246765 191.539105,241.539105 C187.243902,245.834309 180.276267,245.832616 175.983089,241.539439 L140.627084,206.183433 C138.561154,204.117503 137.489646,201.432998 137.411584,198.725292 L134.384776,195.698485 L129.027529,190.341238 L129.027529,190.341238 C128.449427,189.763136 127.977703,189.118548 127.612671,188.432016 C96.9725723,213.63579 51.6112175,211.919875 22.9756134,183.284271 C-7.48528137,152.823376 -7.48528137,103.436508 22.9756134,72.9756134 C53.4365081,42.5147186 102.823376,42.5147186 133.284271,72.9756134 C161.92008,101.611422 163.635815,146.97322 138.431476,177.613328 L138.431476,177.613328 L138.431476,177.613328 Z M144.869724,201.940792 L180.22573,237.296798 C182.175197,239.246265 185.343843,239.249086 187.296465,237.296465 C189.245113,235.347816 189.249235,232.178167 187.296798,230.22573 L151.940792,194.869724 C149.991325,192.920257 146.822679,192.917436 144.870058,194.870058 C142.921409,196.818706 142.917287,199.988355 144.869724,201.940792 L144.869724,201.940792 L144.869724,201.940792 Z M129.041631,179.041631 C157.15938,150.923882 157.15938,105.336003 129.041631,77.2182541 C100.923882,49.1005051 55.3360031,49.1005051 27.2182541,77.2182541 C-0.899494935,105.336003 -0.899494935,150.923882 27.2182541,179.041631 C55.3360031,207.15938 100.923882,207.15938 129.041631,179.041631 L129.041631,179.041631 L129.041631,179.041631 Z M121.263456,171.263456 C97.4414742,195.085438 58.8184105,195.085438 34.9964287,171.263456 C11.1744469,147.441474 11.1744469,108.81841 34.9964287,84.9964287 C58.8184105,61.1744469 97.4414742,61.1744469 121.263456,84.9964287 C145.085438,108.81841 145.085438,147.441474 121.263456,171.263456 L121.263456,171.263456 L121.263456,171.263456 Z M117.020815,167.020815 C138.499651,145.541979 138.499651,110.717905 117.020815,89.2390693 C95.5419792,67.7602333 60.7179054,67.7602333 39.2390693,89.2390693 C17.7602333,110.717905 17.7602333,145.541979 39.2390693,167.020815 C60.7179054,188.499651 95.5419792,188.499651 117.020815,167.020815 L117.020815,167.020815 L117.020815,167.020815 Z M133.27017,186.098597 L138.627417,191.455844 L141.455844,188.627417 L136.098597,183.27017 C135.315344,182.486917 134.044505,182.482407 133.263456,183.263456 C132.476962,184.04995 132.485413,185.31384 133.27017,186.098597 L133.27017,186.098597 L133.27017,186.098597 Z M78,166 C98.9868205,166 116,148.98682 116,128 C116,126.343146 117.343146,125 119,125 C120.656854,125 122,126.343146 122,128 C122,152.300529 102.300529,172 78,172 C76.3431458,172 75,170.656854 75,169 C75,167.343146 76.3431458,166 78,166 L78,166 L78,166 Z M183,132 C185.209139,132 187,130.209139 187,128 C187,125.790861 185.209139,124 183,124 C180.790861,124 179,125.790861 179,128 C179,130.209139 180.790861,132 183,132 L183,132 L183,132 Z M201,132 C203.209139,132 205,130.209139 205,128 C205,125.790861 203.209139,124 201,124 C198.790861,124 197,125.790861 197,128 C197,130.209139 198.790861,132 201,132 L201,132 L201,132 Z M219,132 C216.790861,132 215,130.209139 215,128 C215,125.790861 216.790861,124 219,124 C221.209139,124 223,125.790861 223,128 C223,130.209139 221.209139,132 219,132 Z M148.405592,212.547727 C147.234019,211.376154 147.234136,209.476542 148.401492,208.309186 L158.309186,198.401492 C159.478495,197.232183 161.378538,197.236403 162.547727,198.405592 C163.7193,199.577164 163.719183,201.476777 162.551827,202.644133 L152.644133,212.551827 C151.474824,213.721136 149.574781,213.716916 148.405592,212.547727 Z" id="Shape" fill="#3B4340" fill-rule="nonzero"></path>
                <path d="M198.284271,80 L207.009433,80 C229.094372,80 247,62.09139 247,40 C247,17.9037527 229.095613,0 207.009433,0 L168.990567,0 C146.905628,0 129,17.90861 129,40 C129,62.0962473 146.904387,80 168.990567,80 L177.715729,80 L183.757911,86.0421818 C186.10027,88.3845412 189.899248,88.3850231 192.242089,86.0421818 L198.284271,80 L198.284271,80 Z M153.609375,54.140625 C145.828086,53.7656231 141.703127,49.4531662 141.234375,41.203125 C141.796878,33.0468342 145.921837,28.6406283 153.609375,27.984375 C161.203163,28.6406283 165.328122,33.0468342 165.984375,41.203125 C165.421872,49.4531662 161.296913,53.7656231 153.609375,54.140625 L153.609375,54.140625 Z M176.53125,34.453125 C182.156278,35.0156278 185.249997,38.3437195 185.8125,44.4375 C185.343748,50.6250309 182.250029,53.8593736 176.53125,54.140625 C170.718721,53.8593736 167.625002,50.6250309 167.25,44.4375 C167.718752,38.3437195 170.812471,35.0156278 176.53125,34.453125 L176.53125,34.453125 Z M187.921875,58.640625 L187.921875,37.546875 C187.921875,35.7656161 188.812491,34.7812509 190.59375,34.59375 C192.000007,34.6875005 192.843749,35.437493 193.125,36.84375 C194.062505,35.3437425 195.703113,34.5468755 198.046875,34.453125 C203.203151,34.8281269 206.015623,38.2499677 206.484375,44.71875 C205.921872,50.71878 203.062526,53.8593736 197.90625,54.140625 C195.93749,54.0468745 194.343756,53.5312547 193.125,52.59375 L193.125,58.640625 C193.03125,60.5156344 192.187508,61.4999995 190.59375,61.59375 C188.812491,61.4062491 187.921875,60.4218839 187.921875,58.640625 L187.921875,58.640625 Z M221.53125,38.109375 C221.343749,39.6093825 220.640631,40.4062495 219.421875,40.5 C219.046873,40.5937505 218.437504,40.4062523 217.59375,39.9375 C216.281243,39.3749972 215.343753,39.0468755 214.78125,38.953125 C213.562494,39.0468755 212.953125,39.5156208 212.953125,40.359375 C212.953125,41.0156283 213.93749,41.7187462 215.90625,42.46875 C219.93752,44.062508 221.953125,46.0312383 221.953125,48.375 C221.578123,52.1250187 219.140648,54.0468745 214.640625,54.140625 C210.234353,53.8593736 207.843752,52.6406358 207.46875,50.484375 C207.656251,49.078118 208.359369,48.2812509 209.578125,48.09375 C210.234378,48.09375 211.031245,48.4218717 211.96875,49.078125 C213.093756,49.6406278 214.124995,49.921875 215.0625,49.921875 C216.375007,50.0156255 217.03125,49.5000056 217.03125,48.375 C217.03125,47.8124972 216.00001,47.1562538 213.9375,46.40625 C209.99998,44.9062425 208.03125,42.9375122 208.03125,40.5 C208.218751,36.7499813 210.562477,34.7343764 215.0625,34.453125 C219.09377,34.8281269 221.249999,36.0468647 221.53125,38.109375 L221.53125,38.109375 Z M225.75,44.296875 L225.75,30.375 C225.75,28.8749925 226.640616,28.0781255 228.421875,27.984375 C229.921883,28.1718759 230.765624,28.968743 230.953125,30.375 L230.953125,44.296875 C230.765624,45.7968825 229.921883,46.5937495 228.421875,46.6875 C226.734367,46.5937495 225.84375,45.7968825 225.75,44.296875 L225.75,44.296875 Z M228.421875,54.140625 C226.640616,54.0468745 225.703125,53.203133 225.609375,51.609375 C225.703125,49.9218666 226.640616,48.9843759 228.421875,48.796875 C230.109383,48.9843759 231.046874,49.9218666 231.234375,51.609375 C231.046874,53.203133 230.109383,54.0468745 228.421875,54.140625 L228.421875,54.140625 Z M193.125,44.296875 C193.312501,47.7656423 194.671862,49.5468745 197.203125,49.640625 C199.640637,49.4531241 200.999999,47.7187664 201.28125,44.4375 C200.999999,41.2499841 199.640637,39.5156264 197.203125,39.234375 C194.671862,39.4218759 193.312501,41.1093591 193.125,44.296875 L193.125,44.296875 Z M176.53125,39.234375 C173.999987,39.4218759 172.640626,41.1562336 172.453125,44.4375 C172.640626,47.8125169 173.999987,49.5468745 176.53125,49.640625 C178.968762,49.5468745 180.328124,47.8125169 180.609375,44.4375 C180.328124,41.1562336 178.968762,39.4218759 176.53125,39.234375 L176.53125,39.234375 Z M153.609375,49.5 C157.921897,49.3124991 160.218749,46.5469017 160.5,41.203125 C160.124998,35.9530987 157.828146,33.1875014 153.609375,32.90625 C149.296853,33.1875014 147.046876,35.9530987 146.859375,41.203125 C147.046876,46.5469017 149.296853,49.3124991 153.609375,49.5 L153.609375,49.5 Z" id="Rectangle-20" fill="#3865C1"></path>
            </g>
        </g>
    </g>
</svg>