<svg xmlns="http://www.w3.org/2000/svg" width="67" height="15" viewBox="0 0 67 15">
    <g fill="none" fill-rule="evenodd">
        <path fill="#FFF" d="M20.153.058L16.127.046 14.739.042a.144.144 0 0 0-.147.14l-.024 7.629c0 .077.065.14.146.14l5.414.017a.144.144 0 0 0 .147-.141l.004-1.121a.144.144 0 0 0-.147-.142l-3.879-.01.006-1.833 2.896.008a.144.144 0 0 0 .148-.14l.003-1.122a.144.144 0 0 0-.146-.141l-2.897-.009.006-1.867 3.88.01a.144.144 0 0 0 .146-.14L20.3.2a.144.144 0 0 0-.146-.141zm-8.49 2.856c-.003.529-.554.883-1.104.882L8.846 3.79l.008-2.492 1.712.006c.551.001 1.1.36 1.098.888l-.002.722zm.097 2.102c.815-.159 1.43-.85 1.432-1.679l.005-1.58C13.2.808 12.401.037 11.413.034L9.263.028V.025L8.286.022v.001L7.312.021a.144.144 0 0 0-.147.14L7.14 7.789c0 .078.065.141.146.142l1.388.003a.144.144 0 0 0 .147-.14l.008-2.753.13.002.926.003 1.812 2.741c.052.078.16.166.241.166l1.604.005c.081 0 .105-.087.053-.165L11.76 5.016zm14.593-1.013c-.844-.482-2.459-.877-2.783-1.098-.324-.222-.453-.254-.464-.78-.01-.486.15-.65.871-.648l2.309.004s.474.056.475-.343l.002-.619s.032-.445-.419-.446c-.424-.001-1.912-.006-3.22.001-1.465.008-1.677 1.314-1.7 1.801-.045.991.112 1.644.61 1.987.498.344 1.556.663 2.173.89.617.227 1.3.434 1.309 1.042.007.595-.237.765-.729.764-.491-.002-2.928 0-3.153.004-.225.004-.3.046-.3.302l-.003.569s.01.543.68.545c.584.001 1.9.025 2.784.01.884-.015 2.27-.407 2.328-1.549.058-1.142.074-1.953-.77-2.436zm7.5-3.906L31.49.09 30.103.086 27.748.08a.144.144 0 0 0-.147.141L27.6 1.341c0 .078.065.141.146.142l2.206.006-.02 6.366c0 .078.066.14.147.141L31.465 8a.144.144 0 0 0 .148-.14l.02-6.366 2.216.006c.081 0 .147-.062.147-.14L34 .238a.144.144 0 0 0-.146-.141zM4.523 2.893c-.002.529-.553.883-1.104.882L1.706 3.77l.008-2.492 1.711.005c.551.001 1.1.36 1.099.888l-.002.722zm-.25-2.88L2.123.007V.004l-.98-.003v.002L.172 0a.144.144 0 0 0-.147.14L0 7.77c0 .077.065.14.146.14l1.388.005a.144.144 0 0 0 .147-.14l.009-2.752 2.567.007c.988.003 1.792-.764 1.795-1.712l.005-1.58C6.06.786 5.26.016 4.272.012z"/>
        <path fill="#0F6546" d="M46.857 4.655L42.233.33a1.274 1.274 0 0 0-1.713 0l-7.377 6.897a.425.425 0 0 0-.105.493c.076.172.248.279.447.279h1.203c.13 0 .25-.047.342-.132l5.746-5.373a.874.874 0 0 1 .6-.232c.227 0 .44.082.6.232l2.994 2.8a.499.499 0 0 0 .342.132h1.203c.2 0 .37-.107.447-.28a.424.424 0 0 0-.105-.492z"/>
        <path fill="#FFF" d="M48.48 11.311l.777-2.647s.026-.218.235-.211c.21-.007.255.204.255.204l.784 2.654h-2.05zm2.491-3.689c-.255-.686-1.479-.62-1.479-.62s-1.205-.045-1.46.641c-.255.687-1.993 7.004-1.993 7.004s-.112.336.044.346c.222.015 1.315 0 1.315 0l.666-2.279h2.887l.673 2.28h1.216c.247 0 .135-.343.135-.343S51.227 8.31 50.97 7.622zM66.845 7H61.154c-.085 0-.154.064-.154.142v7.715c0 .079.069.143.154.143h5.691c.086 0 .155-.064.155-.143v-1.134c0-.078-.069-.142-.155-.142h-4.078v-1.854h3.045c.086 0 .155-.064.155-.142V10.45c0-.078-.07-.142-.155-.142h-3.045V8.42h4.078c.086 0 .155-.064.155-.142V7.142c0-.078-.069-.142-.155-.142zM59.783 13.56h-4.004V7.2c0-.11-.097-.2-.217-.2h-1.345c-.12 0-.217.09-.217.2v7.6c0 .11.097.2.217.2h5.566c.12 0 .217-.09.217-.2v-1.04c0-.11-.097-.2-.217-.2z"/>
        <path fill="#00874C" d="M33.143 10.346l4.624 4.323a1.274 1.274 0 0 0 1.714 0l7.376-6.897a.425.425 0 0 0 .105-.493.478.478 0 0 0-.447-.279h-1.203c-.129 0-.25.047-.342.133l-5.746 5.372a.873.873 0 0 1-.6.232.873.873 0 0 1-.6-.232l-2.994-2.8a.498.498 0 0 0-.342-.132h-1.203c-.2 0-.37.107-.447.28a.424.424 0 0 0 .105.493z"/>
    </g>
</svg>
