<svg xmlns="http://www.w3.org/2000/svg" width="48" height="48" viewBox="0 0 48 48">
    <g fill="none" fill-rule="evenodd">
        <path fill="#00B74F" fill-rule="nonzero" d="M24 .667C11.12.667.667 11.12.667 24 .667 36.88 11.12 47.333 24 47.333c12.88 0 23.333-10.453 23.333-23.333C47.333 11.12 36.88.667 24 .667zm3.29 37.543v4.457h-6.23v-4.504c-3.99-.84-7.373-3.406-7.63-7.933h4.573c.234 2.45 1.914 4.363 6.184 4.363 4.573 0 5.6-2.286 5.6-3.71 0-1.936-1.027-3.756-6.23-4.993-5.787-1.4-9.754-3.78-9.754-8.563 0-4.014 3.244-6.627 7.257-7.49V5.333h6.23v4.55c4.34 1.05 6.51 4.34 6.65 7.91h-4.573c-.117-2.59-1.494-4.363-5.18-4.363-3.5 0-5.6 1.587-5.6 3.827 0 1.96 1.516 3.243 6.23 4.456 4.713 1.214 9.753 3.244 9.753 9.124-.023 4.27-3.22 6.603-7.28 7.373z"/>
        <path d="M-4-4h56v56H-4z"/>
    </g>
</svg>
