<svg xmlns="http://www.w3.org/2000/svg" width="25" height="25" viewBox="0 0 25 25">
    <g fill="none" fill-rule="evenodd">
        <path fill="#D8F4E4" fill-rule="nonzero" d="M10.142 4.266C4.576 4.266.059 8.805.059 14.397c0 5.592 4.517 10.131 10.083 10.131 5.565 0 10.082-4.539 10.082-10.131 0-5.592-4.517-10.131-10.082-10.131z"/>
        <path fill="#00B74F" fill-rule="nonzero" d="M12.795 2.133c-5.565 0-10.083 4.54-10.083 10.131 0 5.592 4.518 10.131 10.083 10.131s10.082-4.539 10.082-10.13c0-5.593-4.517-10.132-10.082-10.132zm0-2.133C19.532 0 25 5.494 25 12.264s-5.468 12.264-12.205 12.264S.59 19.034.59 12.264 6.058 0 12.795 0z"/>
        <path fill="#00B74F" d="M14.076 19.265v.53a1.213 1.213 0 0 1-2.426 0v-.548c-1.554-.33-2.872-1.334-2.972-3.105h1.781c.091.959.745 1.708 2.409 1.708 1.78 0 2.18-.895 2.18-1.452 0-.758-.4-1.47-2.426-1.954-2.254-.548-3.798-1.48-3.798-3.352 0-1.57 1.263-2.593 2.826-2.93v-.55a1.213 1.213 0 0 1 2.426 0v.567c1.69.411 2.536 1.699 2.59 3.096h-1.781c-.045-1.014-.582-1.708-2.017-1.708-1.364 0-2.182.621-2.182 1.498 0 .767.591 1.27 2.427 1.744 1.836.475 3.798 1.27 3.798 3.57-.009 1.671-1.254 2.585-2.835 2.886z"/>
    </g>
</svg>
