<svg xmlns="http://www.w3.org/2000/svg" width="28" height="28" viewBox="0 0 28 28">
    <path fill="#BDBDBD" fill-rule="evenodd" d="M22.804 21.64c-2.231-1.808-5.488-2.973-8.775-2.973-3.314 0-6.618 1.12-8.865 2.936A11.611 11.611 0 0 1 2.334 14C2.333 7.556 7.555 2.333 14 2.333S25.667 7.556 25.667 14c0 2.925-1.085 5.593-2.863 7.64M14 25.668c-2.584 0-4.963-.85-6.896-2.272 1.782-1.34 4.333-2.397 6.896-2.397 2.56 0 5.113 1.055 6.904 2.392A11.605 11.605 0 0 1 14 25.668M14 0C6.269 0 0 6.269 0 14c0 3.573 1.35 6.823 3.553 9.296.567.638 1.19 1.223 1.864 1.748A13.919 13.919 0 0 0 14 28c3.244 0 6.224-1.114 8.598-2.967a13.996 13.996 0 0 0 1.822-1.706A13.932 13.932 0 0 0 28 14c0-7.731-6.267-14-14-14m0 14a3.5 3.5 0 1 1 0-7 3.5 3.5 0 0 1 0 7m5.833-3.5a5.834 5.834 0 1 0-11.667.001 5.834 5.834 0 0 0 11.667 0"/>
</svg>
