<svg xmlns="http://www.w3.org/2000/svg" width="42" height="50" viewBox="0 0 42 50">
    <g fill="none" fill-rule="evenodd">
        <path d="M-7-4h56v56H-7z"/>
        <path fill="#00B74F" fill-rule="nonzero" d="M37.333.667H4.667C2.077.667 0 2.767 0 5.333V38a4.665 4.665 0 0 0 4.667 4.667H14l7 7 7-7h9.333A4.68 4.68 0 0 0 42 38V5.333A4.68 4.68 0 0 0 37.333.667zM23.333 38h-4.666v-4.667h4.666V38zm4.83-18.083l-2.1 2.146c-1.68 1.704-2.73 3.104-2.73 6.604h-4.666V27.5c0-2.567 1.05-4.9 2.73-6.603l2.893-2.94a4.562 4.562 0 0 0 1.377-3.29A4.68 4.68 0 0 0 21 10a4.68 4.68 0 0 0-4.667 4.667h-4.666A9.33 9.33 0 0 1 21 5.333a9.33 9.33 0 0 1 9.333 9.334c0 2.053-.84 3.92-2.17 5.25z"/>
    </g>
</svg>
